<svg width="230" height="31" viewBox="0 0 230 31" fill="none" xmlns="http://www.w3.org/2000/svg">
<path d="M0.640015 30V8.36001H5.16002V30H0.640015ZM0.640015 5.40001V0.200012H5.16002V5.40001H0.640015Z" fill="black"/>
<path d="M10.4447 30V8.36001H14.7647V12.6L14.2447 12.04C14.778 10.68 15.6314 9.65335 16.8047 8.96001C17.978 8.24001 19.338 7.88001 20.8847 7.88001C22.4847 7.88001 23.898 8.22668 25.1247 8.92001C26.3514 9.61335 27.3114 10.5733 28.0047 11.8C28.698 13.0267 29.0447 14.44 29.0447 16.04V30H24.5647V17.24C24.5647 16.1467 24.3647 15.2267 23.9647 14.48C23.5647 13.7067 22.9914 13.12 22.2447 12.72C21.5247 12.2933 20.698 12.08 19.7647 12.08C18.8314 12.08 17.9914 12.2933 17.2447 12.72C16.5247 13.12 15.9647 13.7067 15.5647 14.48C15.1647 15.2533 14.9647 16.1733 14.9647 17.24V30H10.4447Z" fill="black"/>
<path d="M43.2422 30.24C40.9755 30.24 39.2155 29.6 37.9622 28.32C36.7089 27.04 36.0822 25.24 36.0822 22.92V12.44H32.2822V8.36001H32.8822C33.8955 8.36001 34.6822 8.06668 35.2422 7.48001C35.8022 6.89335 36.0822 6.09335 36.0822 5.08001V3.40001H40.6022V8.36001H45.5222V12.44H40.6022V22.72C40.6022 23.4667 40.7222 24.1067 40.9622 24.64C41.2022 25.1467 41.5889 25.5467 42.1222 25.84C42.6555 26.1067 43.3489 26.24 44.2022 26.24C44.4155 26.24 44.6555 26.2267 44.9222 26.2C45.1889 26.1733 45.4422 26.1467 45.6822 26.12V30C45.3089 30.0533 44.8955 30.1067 44.4422 30.16C43.9889 30.2133 43.5889 30.24 43.2422 30.24Z" fill="black"/>
<path d="M59.8625 30.48C57.7025 30.48 55.7825 29.9867 54.1025 29C52.4492 27.9867 51.1558 26.6267 50.2225 24.92C49.2892 23.1867 48.8225 21.2533 48.8225 19.12C48.8225 16.9333 49.2892 15 50.2225 13.32C51.1825 11.64 52.4625 10.32 54.0625 9.36001C55.6625 8.37335 57.4758 7.88001 59.5025 7.88001C61.1292 7.88001 62.5825 8.16001 63.8625 8.72001C65.1425 9.28001 66.2225 10.0533 67.1025 11.04C67.9825 12 68.6492 13.1067 69.1025 14.36C69.5825 15.6133 69.8225 16.9467 69.8225 18.36C69.8225 18.7067 69.8092 19.0667 69.7825 19.44C69.7559 19.8133 69.7025 20.16 69.6225 20.48H52.3825V16.88H67.0625L64.9025 18.52C65.1692 17.2133 65.0759 16.0533 64.6225 15.04C64.1958 14 63.5292 13.1867 62.6225 12.6C61.7425 11.9867 60.7025 11.68 59.5025 11.68C58.3025 11.68 57.2358 11.9867 56.3025 12.6C55.3692 13.1867 54.6492 14.04 54.1425 15.16C53.6358 16.2533 53.4358 17.5867 53.5425 19.16C53.4092 20.6267 53.6092 21.9067 54.1425 23C54.7025 24.0933 55.4759 24.9467 56.4625 25.56C57.4758 26.1733 58.6225 26.48 59.9025 26.48C61.2092 26.48 62.3158 26.1867 63.2225 25.6C64.1558 25.0133 64.8892 24.2533 65.4225 23.32L69.1025 25.12C68.6759 26.1333 68.0092 27.0533 67.1025 27.88C66.2225 28.68 65.1558 29.32 63.9025 29.8C62.6758 30.2533 61.3292 30.48 59.8625 30.48Z" fill="black"/>
<path d="M74.2338 30V8.36001H78.5538V12.72L78.1538 12.08C78.6338 10.6667 79.4071 9.65335 80.4738 9.04001C81.5404 8.40001 82.8204 8.08001 84.3138 8.08001H85.6338V12.2H83.7538C82.2604 12.2 81.0471 12.6667 80.1138 13.6C79.2071 14.5067 78.7538 15.8133 78.7538 17.52V30H74.2338Z" fill="black"/>
<path d="M95.006 30L86.526 8.36001H91.446L97.966 26H96.166L102.686 8.36001H107.646L99.126 30H95.006Z" fill="black"/>
<path d="M120.488 30.48C118.328 30.48 116.408 29.9867 114.728 29C113.074 27.9867 111.781 26.6267 110.848 24.92C109.914 23.1867 109.448 21.2533 109.448 19.12C109.448 16.9333 109.914 15 110.848 13.32C111.808 11.64 113.088 10.32 114.688 9.36001C116.288 8.37335 118.101 7.88001 120.128 7.88001C121.754 7.88001 123.208 8.16001 124.488 8.72001C125.768 9.28001 126.848 10.0533 127.728 11.04C128.608 12 129.274 13.1067 129.728 14.36C130.208 15.6133 130.448 16.9467 130.448 18.36C130.448 18.7067 130.434 19.0667 130.408 19.44C130.381 19.8133 130.328 20.16 130.248 20.48H113.008V16.88H127.688L125.528 18.52C125.794 17.2133 125.701 16.0533 125.248 15.04C124.821 14 124.154 13.1867 123.248 12.6C122.368 11.9867 121.328 11.68 120.128 11.68C118.928 11.68 117.861 11.9867 116.928 12.6C115.994 13.1867 115.274 14.04 114.768 15.16C114.261 16.2533 114.061 17.5867 114.168 19.16C114.034 20.6267 114.234 21.9067 114.768 23C115.328 24.0933 116.101 24.9467 117.088 25.56C118.101 26.1733 119.248 26.48 120.528 26.48C121.834 26.48 122.941 26.1867 123.848 25.6C124.781 25.0133 125.514 24.2533 126.048 23.32L129.728 25.12C129.301 26.1333 128.634 27.0533 127.728 27.88C126.848 28.68 125.781 29.32 124.528 29.8C123.301 30.2533 121.954 30.48 120.488 30.48Z" fill="black"/>
<path d="M134.859 30V8.36001H139.179V12.6L138.659 12.04C139.192 10.68 140.045 9.65335 141.219 8.96001C142.392 8.24001 143.752 7.88001 145.299 7.88001C146.899 7.88001 148.312 8.22668 149.539 8.92001C150.765 9.61335 151.725 10.5733 152.419 11.8C153.112 13.0267 153.459 14.44 153.459 16.04V30H148.979V17.24C148.979 16.1467 148.779 15.2267 148.379 14.48C147.979 13.7067 147.405 13.12 146.659 12.72C145.939 12.2933 145.112 12.08 144.179 12.08C143.245 12.08 142.405 12.2933 141.659 12.72C140.939 13.12 140.379 13.7067 139.979 14.48C139.579 15.2533 139.379 16.1733 139.379 17.24V30H134.859Z" fill="black"/>
<path d="M167.656 30.24C165.39 30.24 163.63 29.6 162.376 28.32C161.123 27.04 160.496 25.24 160.496 22.92V12.44H156.696V8.36001H157.296C158.31 8.36001 159.096 8.06668 159.656 7.48001C160.216 6.89335 160.496 6.09335 160.496 5.08001V3.40001H165.016V8.36001H169.936V12.44H165.016V22.72C165.016 23.4667 165.136 24.1067 165.376 24.64C165.616 25.1467 166.003 25.5467 166.536 25.84C167.07 26.1067 167.763 26.24 168.616 26.24C168.83 26.24 169.07 26.2267 169.336 26.2C169.603 26.1733 169.856 26.1467 170.096 26.12V30C169.723 30.0533 169.31 30.1067 168.856 30.16C168.403 30.2133 168.003 30.24 167.656 30.24Z" fill="black"/>
<path d="M174.507 30V8.36001H179.027V30H174.507ZM174.507 5.40001V0.200012H179.027V5.40001H174.507Z" fill="black"/>
<path d="M194.752 30.48C192.672 30.48 190.765 29.9867 189.032 29C187.325 28.0133 185.965 26.6667 184.952 24.96C183.939 23.2533 183.432 21.32 183.432 19.16C183.432 16.9733 183.939 15.04 184.952 13.36C185.965 11.6533 187.325 10.32 189.032 9.36001C190.739 8.37335 192.645 7.88001 194.752 7.88001C196.885 7.88001 198.792 8.37335 200.472 9.36001C202.179 10.32 203.525 11.6533 204.512 13.36C205.525 15.04 206.032 16.9733 206.032 19.16C206.032 21.3467 205.525 23.2933 204.512 25C203.499 26.7067 202.139 28.0533 200.432 29.04C198.725 30 196.832 30.48 194.752 30.48ZM194.752 26.28C196.032 26.28 197.165 25.9733 198.152 25.36C199.139 24.7467 199.912 23.9067 200.472 22.84C201.059 21.7467 201.352 20.52 201.352 19.16C201.352 17.8 201.059 16.5867 200.472 15.52C199.912 14.4533 199.139 13.6133 198.152 13C197.165 12.3867 196.032 12.08 194.752 12.08C193.499 12.08 192.365 12.3867 191.352 13C190.365 13.6133 189.579 14.4533 188.992 15.52C188.432 16.5867 188.152 17.8 188.152 19.16C188.152 20.52 188.432 21.7467 188.992 22.84C189.579 23.9067 190.365 24.7467 191.352 25.36C192.365 25.9733 193.499 26.28 194.752 26.28Z" fill="black"/>
<path d="M210.445 30V8.36001H214.765V12.6L214.245 12.04C214.778 10.68 215.631 9.65335 216.805 8.96001C217.978 8.24001 219.338 7.88001 220.885 7.88001C222.485 7.88001 223.898 8.22668 225.125 8.92001C226.351 9.61335 227.311 10.5733 228.005 11.8C228.698 13.0267 229.045 14.44 229.045 16.04V30H224.565V17.24C224.565 16.1467 224.365 15.2267 223.965 14.48C223.565 13.7067 222.991 13.12 222.245 12.72C221.525 12.2933 220.698 12.08 219.765 12.08C218.831 12.08 217.991 12.2933 217.245 12.72C216.525 13.12 215.965 13.7067 215.565 14.48C215.165 15.2533 214.965 16.1733 214.965 17.24V30H210.445Z" fill="black"/>
<path d="M49.625 16.8906H122.875V20.4688H49.625V16.8906Z" fill="black"/>
</svg>
