<svg width="170" height="24" viewBox="0 0 170 24" fill="none" xmlns="http://www.w3.org/2000/svg">
<path d="M0.820007 22.8061V6.85496H4.15176V22.8061H0.820007ZM0.820007 4.67311V0.840118H4.15176V4.67311H0.820007Z" fill="black"/>
<path d="M8.04717 22.8061V6.85496H11.2315V9.98032L10.8482 9.56753C11.2413 8.56506 11.8703 7.80829 12.7352 7.29723C13.6001 6.76651 14.6026 6.50114 15.7426 6.50114C16.922 6.50114 17.9638 6.75668 18.868 7.26774C19.7722 7.77881 20.4798 8.48643 20.9909 9.39063C21.5019 10.2948 21.7575 11.3366 21.7575 12.516V22.8061H18.4552V13.4005C18.4552 12.5946 18.3078 11.9165 18.0129 11.3661C17.7181 10.7961 17.2955 10.3636 16.7451 10.0688C16.2144 9.75427 15.605 9.59702 14.9171 9.59702C14.2291 9.59702 13.6099 9.75427 13.0595 10.0688C12.5288 10.3636 12.116 10.7961 11.8212 11.3661C11.5263 11.9361 11.3789 12.6143 11.3789 13.4005V22.8061H8.04717Z" fill="black"/>
<path d="M32.2226 22.983C30.5518 22.983 29.2545 22.5112 28.3307 21.5677C27.4068 20.6242 26.9449 19.2974 26.9449 17.5873V9.86238H24.1439V6.85496H24.5861C25.3331 6.85496 25.9129 6.63874 26.3257 6.2063C26.7385 5.77386 26.9449 5.18417 26.9449 4.43723V3.19888H30.2766V6.85496H33.9032V9.86238H30.2766V17.4399C30.2766 17.9903 30.3651 18.462 30.542 18.8552C30.7189 19.2286 31.0039 19.5235 31.3971 19.7397C31.7902 19.9363 32.3012 20.0345 32.9302 20.0345C33.0875 20.0345 33.2644 20.0247 33.461 20.005C33.6575 19.9854 33.8443 19.9657 34.0212 19.9461V22.8061C33.746 22.8454 33.4413 22.8847 33.1072 22.924C32.773 22.9633 32.4782 22.983 32.2226 22.983Z" fill="black"/>
<path d="M44.4737 23.1599C42.8815 23.1599 41.4662 22.7962 40.2279 22.069C39.0092 21.322 38.0559 20.3196 37.3679 19.0615C36.6799 17.7839 36.3359 16.3588 36.3359 14.7863C36.3359 13.1745 36.6799 11.7494 37.3679 10.511C38.0755 9.27269 39.019 8.2997 40.1984 7.59207C41.3778 6.86479 42.7144 6.50114 44.2083 6.50114C45.4073 6.50114 46.4786 6.70754 47.4221 7.12032C48.3656 7.5331 49.1617 8.10314 49.8104 8.83042C50.459 9.53805 50.9504 10.3538 51.2846 11.2776C51.6384 12.2015 51.8153 13.1843 51.8153 14.2261C51.8153 14.4816 51.8055 14.747 51.7858 15.0222C51.7662 15.2974 51.7268 15.5529 51.6679 15.7888H38.9601V13.1352H49.7809L48.1887 14.344C48.3853 13.3809 48.3165 12.5258 47.9823 11.7789C47.6678 11.0123 47.1764 10.4128 46.5081 9.98032C45.8594 9.52822 45.0928 9.30217 44.2083 9.30217C43.3238 9.30217 42.5375 9.52822 41.8495 9.98032C41.1616 10.4128 40.6308 11.0418 40.2574 11.8673C39.8839 12.6732 39.7365 13.6561 39.8151 14.8158C39.7168 15.8969 39.8642 16.8404 40.2574 17.6463C40.6702 18.4522 41.2402 19.0812 41.9675 19.5333C42.7144 19.9854 43.5596 20.2114 44.5031 20.2114C45.4663 20.2114 46.282 19.9952 46.9504 19.5628C47.6383 19.1303 48.1789 18.5701 48.572 17.8822L51.2846 19.209C50.9701 19.9559 50.4787 20.6341 49.8104 21.2434C49.1617 21.8331 48.3754 22.3048 47.4516 22.6587C46.5474 22.9928 45.5548 23.1599 44.4737 23.1599Z" fill="black"/>
<path d="M55.0669 22.8061V6.85496H58.2512V10.0688L57.9564 9.59702C58.3102 8.55523 58.8802 7.80829 59.6665 7.35619C60.4527 6.88444 61.3962 6.64857 62.497 6.64857H63.47V9.68547H62.0842C60.9835 9.68547 60.0891 10.0295 59.4011 10.7174C58.7328 11.3857 58.3986 12.3489 58.3986 13.6069V22.8061H55.0669Z" fill="black"/>
<path d="M70.3783 22.8061L64.1276 6.85496H67.7542L72.5602 19.8576H71.2334L76.0394 6.85496H79.6954L73.4152 22.8061H70.3783Z" fill="black"/>
<path d="M89.1611 23.1599C87.569 23.1599 86.1537 22.7962 84.9153 22.069C83.6967 21.322 82.7433 20.3196 82.0553 19.0615C81.3674 17.7839 81.0234 16.3588 81.0234 14.7863C81.0234 13.1745 81.3674 11.7494 82.0553 10.511C82.763 9.27269 83.7065 8.2997 84.8859 7.59207C86.0652 6.86479 87.4019 6.50114 88.8958 6.50114C90.0948 6.50114 91.1661 6.70754 92.1096 7.12032C93.0531 7.5331 93.8492 8.10314 94.4978 8.83042C95.1465 9.53805 95.6379 10.3538 95.972 11.2776C96.3258 12.2015 96.5028 13.1843 96.5028 14.2261C96.5028 14.4816 96.4929 14.747 96.4733 15.0222C96.4536 15.2974 96.4143 15.5529 96.3553 15.7888H83.6475V13.1352H94.4683L92.8762 14.344C93.0727 13.3809 93.0039 12.5258 92.6698 11.7789C92.3553 11.0123 91.8639 10.4128 91.1955 9.98032C90.5469 9.52822 89.7803 9.30217 88.8958 9.30217C88.0112 9.30217 87.225 9.52822 86.537 9.98032C85.849 10.4128 85.3183 11.0418 84.9448 11.8673C84.5714 12.6732 84.4239 13.6561 84.5026 14.8158C84.4043 15.8969 84.5517 16.8404 84.9448 17.6463C85.3576 18.4522 85.9276 19.0812 86.6549 19.5333C87.4019 19.9854 88.2471 20.2114 89.1906 20.2114C90.1538 20.2114 90.9695 19.9952 91.6378 19.5628C92.3258 19.1303 92.8663 18.5701 93.2595 17.8822L95.972 19.209C95.6575 19.9559 95.1661 20.6341 94.4978 21.2434C93.8492 21.8331 93.0629 22.3048 92.1391 22.6587C91.2349 22.9928 90.2422 23.1599 89.1611 23.1599Z" fill="black"/>
<path d="M99.7543 22.8061V6.85496H102.939V9.98032L102.555 9.56753C102.949 8.56506 103.578 7.80829 104.442 7.29723C105.307 6.76651 106.31 6.50114 107.45 6.50114C108.629 6.50114 109.671 6.75668 110.575 7.26774C111.479 7.77881 112.187 8.48643 112.698 9.39063C113.209 10.2948 113.465 11.3366 113.465 12.516V22.8061H110.162V13.4005C110.162 12.5946 110.015 11.9165 109.72 11.3661C109.425 10.7961 109.003 10.3636 108.452 10.0688C107.922 9.75427 107.312 9.59702 106.624 9.59702C105.936 9.59702 105.317 9.75427 104.767 10.0688C104.236 10.3636 103.823 10.7961 103.528 11.3661C103.234 11.9361 103.086 12.6143 103.086 13.4005V22.8061H99.7543Z" fill="black"/>
<path d="M123.93 22.983C122.259 22.983 120.962 22.5112 120.038 21.5677C119.114 20.6242 118.652 19.2974 118.652 17.5873V9.86238H115.851V6.85496H116.293C117.04 6.85496 117.62 6.63874 118.033 6.2063C118.446 5.77386 118.652 5.18417 118.652 4.43723V3.19888H121.984V6.85496H125.61V9.86238H121.984V17.4399C121.984 17.9903 122.072 18.462 122.249 18.8552C122.426 19.2286 122.711 19.5235 123.104 19.7397C123.497 19.9363 124.008 20.0345 124.637 20.0345C124.795 20.0345 124.972 20.0247 125.168 20.005C125.365 19.9854 125.551 19.9657 125.728 19.9461V22.8061C125.453 22.8454 125.148 22.8847 124.814 22.924C124.48 22.9633 124.185 22.983 123.93 22.983Z" fill="black"/>
<path d="M128.98 22.8061V6.85496H132.311V22.8061H128.98ZM128.98 4.67311V0.840118H132.311V4.67311H128.98Z" fill="black"/>
<path d="M143.902 23.1599C142.369 23.1599 140.964 22.7962 139.686 22.069C138.428 21.3417 137.426 20.349 136.679 19.091C135.932 17.833 135.558 16.4079 135.558 14.8158C135.558 13.204 135.932 11.7789 136.679 10.5405C137.426 9.28252 138.428 8.2997 139.686 7.59207C140.944 6.86479 142.349 6.50114 143.902 6.50114C145.475 6.50114 146.88 6.86479 148.119 7.59207C149.377 8.2997 150.369 9.28252 151.097 10.5405C151.843 11.7789 152.217 13.204 152.217 14.8158C152.217 16.4276 151.843 17.8625 151.097 19.1205C150.35 20.3785 149.347 21.3712 148.089 22.0984C146.831 22.8061 145.436 23.1599 143.902 23.1599ZM143.902 20.064C144.846 20.064 145.681 19.838 146.409 19.3859C147.136 18.9338 147.706 18.3146 148.119 17.5284C148.551 16.7224 148.767 15.8182 148.767 14.8158C148.767 13.8133 148.551 12.9189 148.119 12.1327C147.706 11.3464 147.136 10.7273 146.409 10.2752C145.681 9.82307 144.846 9.59702 143.902 9.59702C142.978 9.59702 142.143 9.82307 141.396 10.2752C140.669 10.7273 140.089 11.3464 139.657 12.1327C139.244 12.9189 139.037 13.8133 139.037 14.8158C139.037 15.8182 139.244 16.7224 139.657 17.5284C140.089 18.3146 140.669 18.9338 141.396 19.3859C142.143 19.838 142.978 20.064 143.902 20.064Z" fill="black"/>
<path d="M155.47 22.8061V6.85496H158.654V9.98032L158.271 9.56753C158.664 8.56506 159.293 7.80829 160.158 7.29723C161.023 6.76651 162.025 6.50114 163.165 6.50114C164.345 6.50114 165.386 6.75668 166.291 7.26774C167.195 7.77881 167.902 8.48643 168.413 9.39063C168.924 10.2948 169.18 11.3366 169.18 12.516V22.8061H165.878V13.4005C165.878 12.5946 165.73 11.9165 165.435 11.3661C165.141 10.7961 164.718 10.3636 164.168 10.0688C163.637 9.75427 163.028 9.59702 162.34 9.59702C161.652 9.59702 161.032 9.75427 160.482 10.0688C159.951 10.3636 159.539 10.7961 159.244 11.3661C158.949 11.9361 158.801 12.6143 158.801 13.4005V22.8061H155.47Z" fill="black"/>
<path d="M36.9275 13.143H90.921V15.7805H36.9275V13.143Z" fill="black"/>
</svg>
